<svg width="100%" height="400" viewBox="0 0 400 400" fill="none" xmlns="http://www.w3.org/2000/svg">
<g clip-path="url(#clip0_1_4)">
<path d="M178.167 125.167C185.167 125.167 192 125.167 199 125.167C203.5 125.167 207.167 128 208.667 131.833C209 132.833 209.333 134 209.167 135C209.167 138.167 209.167 141.333 208.667 144.5C208 147.833 207 151.167 206 154.333C204.833 158.333 202.667 162 200.333 165.5C197 170.333 193 174.667 188.167 178.167C184.5 180.833 180.667 183 176.5 184.667C174.167 185.667 171.833 186.167 169.5 186.833C165.167 188 160.833 188.333 156.5 188.333C152.667 188.333 148.833 187.833 145.167 187C139.5 185.5 134.5 183.333 129.667 180.333C123.833 176.667 119 172.167 115 166.667C112.167 162.667 109.833 158.5 108.333 153.833C107.167 150.5 106.167 147.333 105.833 143.833C105.5 141.333 105 138.667 105 136.167C105.167 132.667 105.167 129.167 106.167 125.667C107 122.833 107.833 119.833 108.667 117C109.833 113.333 111.667 110.167 113.833 107C116 103.667 118.5 100.667 121.333 98C126 93.6667 131.333 90.1667 137.167 87.6667C140.5 86.8333 143.667 85.8333 147 85C152.333 83.8333 157.667 83.8333 163 84.3333C166.5 84.6667 169.833 85.5 173.167 86.5C178.667 88.3333 183.833 90.8333 188.333 94.3333C190.833 96.3333 193.167 98.3333 195.167 100.667C197 102.833 197.5 105.5 196.667 108.5C196 111.5 194.333 113.833 191.667 115.333C189.333 116.667 186.833 117.167 184 116.333C181.667 115.667 180 114.333 178.333 112.833C174.667 109.5 170.5 107.167 165.667 105.833C163 105.167 160.167 104.5 157.333 104.5C151.5 104.5 145.833 106 140.833 109C135 112.667 130.667 117.667 128 124C127.333 126.833 126.5 129.167 126.333 131.833C126.167 133.833 125.833 135.667 126 137.667C126.167 140.667 126.833 143.5 127.667 146.333C129.667 152 133 156.667 137.5 160.333C140.333 162.667 143.667 164.5 147.167 165.667C150.667 166.833 154.167 167.5 157.833 167.333C162.5 167.167 167.167 166.167 171.333 163.833C177.333 160.667 182 156.167 185 150C185.5 149 186 147.833 186.5 146.667C187 145.667 186.333 145.5 185.5 145.5C176.167 145.5 166.833 145.5 157.5 145.5C155.167 145.5 153 145 151 143.5C147.667 141 146.167 137.667 146.833 133.5C147.667 129.667 150 126.833 154.167 125.667C155.167 125.333 156.333 125.167 157.333 125.167C164.333 125.167 171.167 125.167 178.167 125.167Z" fill="black"/>
<path d="M0 136.167C0 122.667 0 109.167 0 95.6667C0 91.1667 2.83333 86.8333 7.33333 85.6667C9 85.1667 10.8333 84.8333 12.5 84.6667C15.8333 84.3333 19 84.1667 22.3333 84.1667C25.6667 84.1667 28.8333 84.8333 32 85.5C37.3333 86.6667 42.1667 88.8333 46.8333 91.5C52.1667 94.8333 56.6667 99 60.5 103.833C63.1667 107.167 65.3333 110.5 67 114.333C68 116.833 69 119.333 69.6667 121.833C71.6667 128 72 134.333 71.6667 140.5C71.5 143 70.8333 145.5 70.3333 148C69.6667 151.667 68.3333 155 66.8333 158.333C65.1667 161.667 63.3333 164.833 61 167.833C58 171.667 54.6667 175 50.8333 177.833C46.8333 180.833 42.3333 183.333 37.6667 185C35.1667 186 32.3333 186.5 29.6667 187.167C25.6667 188.167 21.6667 188.167 17.5 188.167C13.8333 188.167 10.3333 187.833 7 186.667C3.5 185.5 1.16667 183 0.5 179.167C0.166667 177.5 0 175.833 0 174.167C0 161.5 0 148.833 0 136.167ZM21 167.333C30 167 37.5 163.333 43.1667 156.833C50 148.833 52.5 139.5 50.1667 129.167C48.5 122 44.6667 116.167 39 111.5C33.8333 107.333 27.6667 105.333 21 104.833C21 125.667 21 146.333 21 167.333Z" fill="black"/>
<path d="M21 222.167C21 229.167 21 236 21 243.167C21.5 243.167 22 243.167 22.5 243.167C35.3333 243.167 48.3333 243.167 61.1667 243.167C66 243.167 69.3333 245.5 71.1667 249.667C73.1667 254.667 71.3333 259.833 66.1667 262.667C64.5 263.5 62.6667 263.833 60.8333 263.833C48 263.833 35.3333 263.833 22.5 263.833C21.3333 263.833 21 264.167 21 265.333C21 275.167 21.1667 285.167 21 295C21 299.5 18.5 303.5 13.8333 305.167C8.83333 307 2.83333 304.333 1 299.333C0.333333 297.667 0 296 0 294.333C0 267.167 0 239.833 0 212.667C0 207.5 2.66667 203.667 7.16667 202C8.16667 201.667 9.5 201.5 10.6667 201.5C27.5 201.5 44.3333 201.5 61.1667 201.5C65.5 201.5 69.8333 204 71.3333 209C73 214.167 70.1667 219.667 65.3333 221.5C63.6667 222.167 62.1667 222.333 60.5 222.333C47.8333 222.333 35.1667 222.333 22.5 222.333C22 222.167 21.5 222.167 21 222.167Z" fill="black"/>
<path d="M162.833 246.667C163.667 243.167 164.5 239.667 165.5 236.333C166.333 233 167.333 229.667 168.333 226.167C168.833 224 169.333 221.833 170 219.5C170.5 217.333 171.167 215.167 171.833 213.167C172.167 211.833 172.5 210.333 172.833 209C173.667 205.667 175.833 203.5 178.833 202.167C184.167 199.833 189.833 202.5 192 207C193 209 193.667 211.167 193 213.5C192.167 216.333 191.667 219.333 190.833 222.167C190 225.5 189 228.833 188 232.333C187.333 235.167 186.667 238 185.833 240.833C185.167 243.667 184.333 246.333 183.5 249.167C183 251.333 182.5 253.5 182 255.667C181.333 258.5 180.5 261.167 179.667 264C179.167 266.167 178.667 268.333 178 270.667C177.5 272.833 176.833 275 176.167 277.167C175.833 278.667 175.5 280.167 175 281.667C174.333 283.833 173.833 286.167 173.167 288.333C172.833 289.833 172.5 291.5 172 293C171.167 295.833 170.833 298.833 169.167 301.333C167.667 303.5 165.667 304.667 163.167 305.5C159 306.833 154 304.5 151.833 301C150.833 298.667 150 296.5 150.667 294C151.5 290.667 152.333 287.333 153.167 284C153.833 281.5 154.5 279 155.167 276.5C155.5 275.167 154.667 274.167 154 273.167C150.167 266.5 146.333 260 142.333 253.333C138.667 247.167 135 241 131.333 234.833C127.667 228.667 124 222.667 120.667 216.333C118.5 212.333 119.167 207.167 123.667 203.667C126 201.833 128.667 201 131.833 201.667C135.833 202.333 138 205 139.833 208.167C143.167 213.833 146.5 219.667 149.833 225.333C152.833 230.5 155.833 235.833 158.833 241C159.833 242.667 160.833 244.333 161.833 246C162.167 246.167 162.5 246.333 162.833 246.667Z" fill="black"/>
<path d="M99 284.667C100.667 284.667 102.167 284.667 103.833 284.667C107.667 284.667 111.667 284.667 115.5 284.667C119.667 284.667 123 286.333 125.167 290C127.833 294.5 126.667 300.667 122 303.667C119.833 305 117.667 305.5 115.167 305.5C106.333 305.5 97.6667 305.5 88.8334 305.5C84.1667 305.5 80.5 303 78.6667 298.5C78.3333 297.5 78.1667 296.333 78.1667 295.333C78.1667 267.333 78.1667 239.333 78.1667 211.5C78.1667 207.5 80.6667 203.833 84.6667 202.167C90 200 95.8334 202.667 97.8333 207.167C98.5 208.833 99 210.667 99 212.5C99 236 99 259.5 99 283C99 283.5 99 284 99 284.667Z" fill="black"/>
<path d="M285.667 182C281.667 181.667 278.667 179.833 276.5 176.833C273.833 173 271.167 169.167 268.667 165.333C265 160 261.333 154.833 257.5 149.5C255.667 146.833 253.667 144.167 252 141.333C250 137.5 250.333 133.333 253 130C258.333 123.333 263.833 116.833 269.167 110.333C273 105.833 276.667 101.167 280.5 96.6667C282.167 94.6667 284.333 93.6667 287.167 93.3333C291.167 93 294.5 94.3333 296.833 97.5C298.833 100.167 299.333 103.167 298.5 106.5C297.833 109.167 295.833 111.167 294.333 113.333C292.167 116.5 290.167 119.833 289 123.5C288.167 126 287.333 128.667 286.667 131.167C286.167 133.333 286 135.667 286 137.833C286 141 286 144.333 286.5 147.333C287.333 152.667 289.167 157.5 292 162.167C293 163.833 294.167 165.333 295 167.167C297.167 172.167 295.167 178.333 289.667 180.667C288.667 181.333 287.167 181.667 285.667 182Z" fill="black"/>
<path d="M354.5 171.333C354.5 168.333 355.833 166.167 357.333 163.833C359.5 160.667 361.167 157.167 362.333 153.5C363.167 151 363.667 148.5 363.833 145.833C364.167 142.5 364.5 139 364.167 135.5C364 132.5 363.167 129.5 362.333 126.5C361.333 122.5 359.5 118.833 357.333 115.333C356.167 113.5 354.833 111.833 353.5 110C351.667 107.5 351 104.833 351.5 101.833C352.333 97.6667 355.833 93.6667 360.667 93.3333C364.667 93 367.833 94.3333 370.333 97.3333C374.833 102.667 379.333 108.167 383.833 113.5C388.333 118.833 392.833 124.333 397.167 129.667C399 132 399.833 134.667 399.5 137.5C399.167 140 397.833 142 396.333 144C392.833 149 389.333 154.167 385.833 159.167C383 163.333 380 167.333 377.167 171.5C376 173.167 374.833 175 373.667 176.667C371 180.5 367.333 182.333 362.833 181.5C358.833 180.833 355.833 178.333 354.667 174.333C354.833 173.333 354.667 172.333 354.5 171.333Z" fill="black"/>
<path d="M214.167 136.167C214.167 122.333 214.167 108.5 214.167 94.6667C214.167 89.6667 217.333 85.5 221.833 84.5C227 83.3333 232 85.3333 234.167 90.8333C234.667 92.3333 235 93.8333 235 95.3333C235 122.667 235 149.833 235 177.167C235 180.333 234 183.167 231.667 185.5C226.667 190.5 217.667 188.833 215 182.167C214.5 180.833 214.167 179.333 214 177.833C214.167 163.833 214.167 150 214.167 136.167Z" fill="black"/>
<path d="M78 136.167C78 122.333 78 108.5 78 94.6667C78 89.5 81 85.5 85.8333 84.3333C90.8333 83.1667 95.6667 85 98 90.3333C98.6667 91.8333 99 93.6667 99 95.5C99 122.667 99 150 99 177.167C99 180.333 98 183 95.6667 185.333C91.1667 189.667 83.3333 189 79.8333 183.5C78.6667 181.5 78 179.5 78 177.333C78 163.5 78 149.833 78 136.167Z" fill="black"/>
<path d="M340.167 96.5C339.833 99.1667 339.333 101.667 339 104.167C338.833 105.5 338.667 106.833 338.5 108.167C338.333 110.167 338.167 112.167 337.833 114C337.5 117 337 120.167 336.5 123.167C336.333 124.5 336.167 125.833 336 127.167C335.833 129.167 335.667 131.167 335.333 133C335 136.167 334.5 139.167 334 142.333C333.833 143.667 333.667 145 333.5 146.333C333.5 148.5 333.333 150.5 333.167 152.333C332.833 155.5 332.333 158.5 331.833 161.667C331.667 163 331.5 164.5 331.333 165.833C331.167 167.833 331 169.833 330.667 171.833C330.167 175.167 330 178.5 329.167 181.667C328.333 185 326.167 187.5 322.667 188.5C317.833 190 313.5 188.667 310.667 184.5C309 182.167 308.333 179.5 309.167 176.5C309.5 175 309.667 173.5 309.833 172C310 170 310.167 168 310.5 166C310.833 163 311.333 160 311.833 157C312 155.667 312.167 154.333 312.333 153C312.5 151 312.667 149 313 147.167C313.333 144 313.833 141 314.333 137.833C314.5 136.5 314.667 135.167 314.833 133.833C315 131.833 315.167 130 315.5 128C315.833 124.833 316.333 121.833 316.833 118.667C317 117.333 317.167 115.833 317.333 114.5C317.5 112.5 317.667 110.5 318 108.5C318.333 105.5 318.833 102.333 319.333 99.3333C319.5 97.8333 319.833 96.3333 319.833 94.8333C320.167 90.6667 323.833 86.8333 327.667 85.8333C332.667 84.5 338 87.6667 339.667 92C340 93.5 340 95.1667 340.167 96.5Z" fill="black"/>
<path d="M263.333 282.167C261.667 284 260.167 285.667 258.5 287.167C255.667 289.833 252.333 291.667 248.833 293C246.5 293.833 244 294.167 241.667 294.667C238.833 295.167 236.167 294.833 233.667 294.333C229.333 293.667 225.333 292 221.833 289.5C217.333 286.333 213.833 282.167 211.5 277.167C210.5 275 210 272.667 209.333 270.333C208.833 268.5 208.5 266.5 208.5 264.667C208.5 258 210.167 251.667 214 246C217.5 240.833 222.167 237.333 227.833 235C230 234.167 232.5 233.833 234.833 233.333C236.333 233 237.833 232.833 239.333 233C243 233.167 246.5 233.833 250 235.167C254.667 237 258.5 240 261.667 243.667C262.167 244.333 262.667 244.833 263.333 245.833C263.333 245 263.333 244.5 263.333 244C263.333 234.167 263.333 224.333 263.333 214.5C263.333 212.167 265 210.667 267.333 211.333C268.5 211.667 269 212.5 269.167 213.5C269.167 213.833 269.167 214.333 269.167 214.667C269.167 240 269.167 265.333 269.167 290.667C269.167 292.167 268.833 293.167 267.5 294C266.167 294.667 264.5 293.833 263.833 292.667C263.5 292 263.333 291.167 263.333 290.5C263.333 288.167 263.333 285.833 263.333 283.5C263.5 283 263.5 282.667 263.333 282.167ZM263.5 263C263.833 260.5 263 257.333 261.833 254.167C260.167 249.833 257.5 246.167 253.833 243.333C249.667 240.167 245.167 238.5 240 238.333C237.667 238.333 235.167 238.833 232.667 239.167C229.167 239.833 226.167 241.5 223.5 243.667C217.667 248.5 214.667 255 214.167 262.5C214 265.333 214.5 268.167 215.167 270.833C216 274.167 217.5 277 219.667 279.833C224.5 286 230.833 288.833 238.333 289.333C241 289.5 243.667 288.833 246.333 288.167C249.833 287.167 252.833 285.333 255.5 282.833C260.833 277.667 263.5 271.333 263.5 263Z" fill="black"/>
<path d="M280.333 264.833C280.333 255 284.167 247 291.667 240.667C294.667 238.167 298.167 236.5 301.833 235.333C304.667 234.5 307.5 234 310.5 234C314.5 234 318.333 234.833 322.167 236.333C325.167 237.5 328 239.167 330.333 241.333C332.667 243.5 332.5 244.5 330.833 246.5C327.833 250.167 324.667 253.833 321.667 257.5C317.167 263 312.667 268.333 308 273.833C307.333 274.667 306.667 275.5 305.333 275.667C303.833 275.667 303 275 302.5 274C302 273 302.5 272 303.167 271.333C306.167 267.667 309.167 264.167 312.167 260.5C316.333 255.5 320.667 250.5 324.833 245.5C325.333 245 325.167 244.667 324.667 244.333C322.667 242.833 320.5 241.667 318.167 240.833C315.167 239.833 312.167 239.333 309 239.5C301.833 240.167 295.833 243.167 291.333 249C289.5 251.333 288.167 253.667 287.333 256.333C286.667 258 286.333 259.833 286.167 261.667C286 263.667 286 265.833 286.167 267.833C286.333 271.833 287.833 275.667 290 279C292.5 282.833 295.667 285.833 299.833 287.833C302.333 289 304.833 290 307.667 290.167C308.833 290.167 309.833 290.5 311 290.5C316.5 290.167 321.5 288.667 325.667 285.167C327.333 283.833 328.833 282.167 330.333 280.833C331.333 280 332.5 280.167 333.5 281.167C334.5 282 334.833 283.333 334 284.333C332.667 286 331.167 287.667 329.667 289.167C327.333 291.167 324.5 292.833 321.5 293.833C319.167 294.667 316.667 295.167 314.333 295.5C312.833 295.833 311.333 296 309.833 295.833C300.667 295.333 292.833 291.833 287 284.667C284.333 281.333 282.167 277.5 281.167 273.333C280.5 270.5 280.167 267.667 279.833 265C280.167 264.833 280.333 264.833 280.333 264.833Z" fill="black"/>
<path d="M353.667 283.833C355.667 281.5 357.5 279.333 359.333 277.167C361.5 274.5 363.667 271.833 366 269.167C370.5 263.667 375.167 258.167 379.833 252.667C382.667 249.167 385.667 245.833 388.5 242.333C390.667 239.833 392.667 237.333 394.833 234.833C396 233.333 397.833 233 399 234C400.333 235 400.5 236.5 399.167 238C395.667 242.333 392 246.5 388.333 250.833C383.667 256.5 378.833 262.167 374.167 267.833C369.5 273.5 364.667 279.167 359.833 284.833C357.5 287.667 355 290.5 352.667 293.333C351.833 294.333 350.833 295 349.667 294.5C348.333 294 347.667 293.167 347.667 291.5C347.667 273.167 347.667 254.833 347.667 236.5C347.667 234.833 348.5 233.833 349.833 233.667C351.667 233.5 352.667 234.167 353.167 235.833C353.333 236.5 353.5 237.167 353.5 237.833C353.5 252.667 353.5 267.5 353.5 282.167C353.5 282.667 353.667 283.167 353.667 283.833Z" fill="black"/>
</g>
<defs>
<clipPath id="clip0_1_4">
<rect width="400" height="400" fill="white"/>
</clipPath>
</defs>
</svg>
